<svg id="Layer_1" data-name="Layer 1" xmlns="http://www.w3.org/2000/svg" viewBox="0 0 403.48 329.73"><path d="M607.37,1249.07A121.63,121.63,0,1,0,729,1370.69,121.62,121.62,0,0,0,607.37,1249.07Zm0,237.73a116.11,116.11,0,1,1,116.1-116.11A116.1,116.1,0,0,1,607.37,1486.8Z" transform="translate(-326.02 -1163.09)" fill="#7f3f97" stroke="#7f3f97" stroke-miterlimit="10"/><path d="M523.34,1163.59A110.26,110.26,0,1,0,633.6,1273.85,110.25,110.25,0,0,0,523.34,1163.59Zm0,215.51a105.25,105.25,0,1,1,105.25-105.25A105.26,105.26,0,0,1,523.34,1379.1Z" transform="translate(-326.02 -1163.09)" fill="#0e8db0" stroke="#0e8db0" stroke-miterlimit="10"/><path d="M422.69,1300a96.18,96.18,0,1,0,96.18,96.17A96.17,96.17,0,0,0,422.69,1300Zm0,188a91.81,91.81,0,1,1,91.81-91.81A91.81,91.81,0,0,1,422.69,1488Z" transform="translate(-326.02 -1163.09)" fill="orange" stroke="orange" stroke-miterlimit="10"/></svg>